<?xml version="1.0" encoding="utf-8"?>
<!-- Generator: Adobe Illustrator 16.2.1, SVG Export Plug-In . SVG Version: 6.00 Build 0)  -->
<!DOCTYPE svg PUBLIC "-//W3C//DTD SVG 1.1//EN" "http://www.w3.org/Graphics/SVG/1.1/DTD/svg11.dtd">
<svg version="1.1" id="Layer_1" xmlns="http://www.w3.org/2000/svg" xmlns:xlink="http://www.w3.org/1999/xlink" x="0px" y="0px"
	 width="480px" height="640px" viewBox="0 0 480 640" enable-background="new 0 0 480 640" xml:space="preserve">
<g>
	<path fill-rule="evenodd" clip-rule="evenodd" fill="#FFFFFF" d="M16.29,9.647c0.03-0.21,0.04-0.44,0.04-0.66
		c0-2.66-2.08-4.82-4.66-4.82c-2.05,0-3.79,1.36-4.42,3.26c-0.32-0.09-0.65-0.12-1-0.14c-2.53-0.17-3.75,0.68-3.75,3.909
		c0,0.211,0.01,0.41,0.05,0.601C1.66,12.017,1,12.837,1,13.808c0,1.139,1.14,2.359,2.25,2.359l12.71-0.04
		c1.66,0,3.04-1.489,3.04-3.22C19,11.287,17.811,9.797,16.29,9.647z M13,11h-0.274l-0.5-1H11v4.066l1,0.225V15H8v-0.709l1-0.241V10
		H7.726l-0.5,1H7V9h6V11z"/>
</g>
<g>
	<path fill-rule="evenodd" clip-rule="evenodd" fill="#91CC41" d="M36.29,9.647c0.03-0.21,0.04-0.44,0.04-0.66
		c0-2.66-2.08-4.82-4.66-4.82c-2.05,0-3.79,1.36-4.42,3.26c-0.32-0.09-0.65-0.12-1-0.14c-2.53-0.17-3.75,0.68-3.75,3.909
		c0,0.211,0.01,0.41,0.05,0.601c-0.89,0.22-1.55,1.04-1.55,2.011c0,1.139,1.14,2.359,2.25,2.359l12.71-0.04
		c1.66,0,3.04-1.489,3.04-3.22C39,11.287,37.811,9.797,36.29,9.647z M33,11h-0.274l-0.5-1H31v4.066l1,0.225V15h-4v-0.709l1-0.241V10
		h-1.274l-0.5,1H27V9h6V11z"/>
</g>
<g>
	<path fill-rule="evenodd" clip-rule="evenodd" fill="#78B2F2" d="M56.29,9.647c0.03-0.21,0.04-0.44,0.04-0.66
		c0-2.66-2.08-4.82-4.66-4.82c-2.05,0-3.79,1.36-4.42,3.26c-0.32-0.09-0.65-0.12-1-0.14c-2.53-0.17-3.75,0.68-3.75,3.909
		c0,0.211,0.01,0.41,0.05,0.601c-0.89,0.22-1.55,1.04-1.55,2.011c0,1.139,1.14,2.359,2.25,2.359l12.71-0.04
		c1.66,0,3.04-1.489,3.04-3.22C59,11.287,57.811,9.797,56.29,9.647z M53,11h-0.274l-0.5-1H51v4.066l1,0.225V15h-4v-0.709l1-0.241V10
		h-1.274l-0.5,1H47V9h6V11z"/>
</g>
<g>
	<path fill-rule="evenodd" clip-rule="evenodd" fill="#E3B551" d="M76.29,9.647c0.03-0.21,0.04-0.44,0.04-0.66
		c0-2.66-2.08-4.82-4.66-4.82c-2.05,0-3.79,1.36-4.42,3.26c-0.32-0.09-0.65-0.12-1-0.14c-2.53-0.17-3.75,0.68-3.75,3.909
		c0,0.211,0.01,0.41,0.05,0.601c-0.89,0.22-1.55,1.04-1.55,2.011c0,1.139,1.14,2.359,2.25,2.359l12.71-0.04
		c1.66,0,3.04-1.489,3.04-3.22C79,11.287,77.811,9.797,76.29,9.647z M73,11h-0.274l-0.5-1H71v4.066l1,0.225V15h-4v-0.709l1-0.241V10
		h-1.274l-0.5,1H67V9h6V11z"/>
</g>
<g>
	<path fill-rule="evenodd" clip-rule="evenodd" fill="#F74687" d="M96.29,9.647c0.03-0.21,0.04-0.44,0.04-0.66
		c0-2.66-2.08-4.82-4.66-4.82c-2.05,0-3.79,1.36-4.42,3.26c-0.32-0.09-0.65-0.12-1-0.14c-2.53-0.17-3.75,0.68-3.75,3.909
		c0,0.211,0.01,0.41,0.05,0.601c-0.89,0.22-1.55,1.04-1.55,2.011c0,1.139,1.14,2.359,2.25,2.359l12.71-0.04
		c1.66,0,3.04-1.489,3.04-3.22C99,11.287,97.811,9.797,96.29,9.647z M93,11h-0.274l-0.5-1H91v4.066l1,0.225V15h-4v-0.709l1-0.241V10
		h-1.274l-0.5,1H87V9h6V11z"/>
</g>
<g>
</g>
<g>
</g>
<g>
</g>
<g>
</g>
<g>
</g>
<g>
</g>
<g>
</g>
<g>
</g>
<g>
</g>
<g>
</g>
<g>
</g>
<g>
</g>
<g>
</g>
<g>
</g>
<g>
</g>
</svg>
