<?xml version="1.0" encoding="utf-8"?>
<!-- Generator: Adobe Illustrator 16.2.1, SVG Export Plug-In . SVG Version: 6.00 Build 0)  -->
<!DOCTYPE svg PUBLIC "-//W3C//DTD SVG 1.1//EN" "http://www.w3.org/Graphics/SVG/1.1/DTD/svg11.dtd">
<svg version="1.1" id="Layer_1" xmlns="http://www.w3.org/2000/svg" xmlns:xlink="http://www.w3.org/1999/xlink" x="0px" y="0px"
	 width="480px" height="640px" viewBox="0 0 480 640" enable-background="new 0 0 480 640" xml:space="preserve">
<path fill-rule="evenodd" clip-rule="evenodd" fill="#FFFFFF" d="M12,2.5c0-0.529-0.5-1-1-1H3c-0.54,0-1,0.46-1,1v14
	c0,0.529,0.5,1,1,1h7.59l-3-3H4v-11h6v7.721l2-2V2.5z M7,16.5H6v-1h1V16.5z M13.95,14.029c0,0.311,0.25,0.57,0.56,0.57
	c0.301,0,0.551-0.26,0.551-0.57c0-0.309-0.25-0.559-0.551-0.559C14.2,13.471,13.95,13.721,13.95,14.029z M15.061,17.38
	c1.819-0.409,4.66-2.94,4.66-2.94s-2-3.5-4.811-3.689c-0.16-0.01-0.71-0.02-0.811-0.02C11.41,10.88,9.22,14.54,9.22,14.54
	s2.379,2.46,4.59,2.84C14.07,17.43,14.91,17.439,15.061,17.38z M11.811,14.061c0-1.41,1.219-2.621,2.689-2.621
	s2.63,1.211,2.63,2.621s-1.25,2.67-2.71,2.67C12.95,16.73,11.811,15.471,11.811,14.061z"/>
<path fill-rule="evenodd" clip-rule="evenodd" fill="#91CC41" d="M32,2.5c0-0.529-0.5-1-1-1h-8c-0.54,0-1,0.46-1,1v14
	c0,0.529,0.5,1,1,1h7.59l-3-3H24v-11h6v7.721l2-2V2.5z M27,16.5h-1v-1h1V16.5z M33.95,14.029c0,0.311,0.25,0.57,0.56,0.57
	c0.301,0,0.551-0.26,0.551-0.57c0-0.309-0.25-0.559-0.551-0.559C34.2,13.471,33.95,13.721,33.95,14.029z M35.061,17.38
	c1.819-0.409,4.66-2.94,4.66-2.94s-2-3.5-4.811-3.689c-0.16-0.01-0.71-0.02-0.811-0.02c-2.689,0.149-4.879,3.81-4.879,3.81
	s2.379,2.46,4.59,2.84C34.07,17.43,34.91,17.439,35.061,17.38z M31.811,14.061c0-1.41,1.219-2.621,2.689-2.621
	s2.63,1.211,2.63,2.621s-1.25,2.67-2.71,2.67C32.95,16.73,31.811,15.471,31.811,14.061z"/>
<path fill-rule="evenodd" clip-rule="evenodd" fill="#78B2F2" d="M51.75,2.5c0-0.529-0.5-1-1-1h-8c-0.54,0-1,0.46-1,1v14
	c0,0.529,0.5,1,1,1h7.59l-3-3h-3.59v-11h6v7.721l2-2V2.5z M46.75,16.5h-1v-1h1V16.5z M53.7,14.029c0,0.311,0.25,0.57,0.56,0.57
	c0.301,0,0.551-0.26,0.551-0.57c0-0.309-0.25-0.559-0.551-0.559C53.95,13.471,53.7,13.721,53.7,14.029z M54.811,17.38
	c1.819-0.409,4.66-2.94,4.66-2.94s-2-3.5-4.811-3.689c-0.16-0.01-0.71-0.02-0.811-0.02c-2.689,0.149-4.879,3.81-4.879,3.81
	s2.379,2.46,4.59,2.84C53.82,17.43,54.66,17.439,54.811,17.38z M51.561,14.061c0-1.41,1.219-2.621,2.689-2.621
	s2.63,1.211,2.63,2.621s-1.25,2.67-2.71,2.67C52.7,16.73,51.561,15.471,51.561,14.061z"/>
<path fill-rule="evenodd" clip-rule="evenodd" fill="#E3B551" d="M72,2.5c0-0.529-0.5-1-1-1h-8c-0.54,0-1,0.46-1,1v14
	c0,0.529,0.5,1,1,1h7.59l-3-3H64v-11h6v7.721l2-2V2.5z M67,16.5h-1v-1h1V16.5z M73.95,14.029c0,0.311,0.25,0.57,0.56,0.57
	c0.301,0,0.551-0.26,0.551-0.57c0-0.309-0.25-0.559-0.551-0.559C74.2,13.471,73.95,13.721,73.95,14.029z M75.061,17.38
	c1.819-0.409,4.66-2.94,4.66-2.94s-2-3.5-4.811-3.689c-0.16-0.01-0.71-0.02-0.811-0.02c-2.689,0.149-4.879,3.81-4.879,3.81
	s2.379,2.46,4.59,2.84C74.07,17.43,74.91,17.439,75.061,17.38z M71.811,14.061c0-1.41,1.219-2.621,2.689-2.621
	s2.63,1.211,2.63,2.621s-1.25,2.67-2.71,2.67C72.95,16.73,71.811,15.471,71.811,14.061z"/>
<path fill-rule="evenodd" clip-rule="evenodd" fill="#F74687" d="M92,2.5c0-0.529-0.5-1-1-1h-8c-0.54,0-1,0.46-1,1v14
	c0,0.529,0.5,1,1,1h7.59l-3-3H84v-11h6v7.721l2-2V2.5z M87,16.5h-1v-1h1V16.5z M93.95,14.029c0,0.311,0.25,0.57,0.56,0.57
	c0.301,0,0.551-0.26,0.551-0.57c0-0.309-0.25-0.559-0.551-0.559C94.2,13.471,93.95,13.721,93.95,14.029z M95.061,17.38
	c1.819-0.409,4.66-2.94,4.66-2.94s-2-3.5-4.811-3.689c-0.16-0.01-0.71-0.02-0.811-0.02c-2.689,0.149-4.879,3.81-4.879,3.81
	s2.379,2.46,4.59,2.84C94.07,17.43,94.91,17.439,95.061,17.38z M91.811,14.061c0-1.41,1.219-2.621,2.689-2.621
	s2.63,1.211,2.63,2.621s-1.25,2.67-2.71,2.67C92.95,16.73,91.811,15.471,91.811,14.061z"/>
<g>
</g>
<g>
</g>
<g>
</g>
<g>
</g>
<g>
</g>
<g>
</g>
<g>
</g>
<g>
</g>
<g>
</g>
<g>
</g>
<g>
</g>
<g>
</g>
<g>
</g>
<g>
</g>
<g>
</g>
</svg>
